<?xml version="1.0" encoding="UTF-8"?>
<svg id="Calque_1" data-name="Calque 1" xmlns="http://www.w3.org/2000/svg" viewBox="0 0 552.85 788.91">
  <defs>
    <style>
      .cls-1 {
        fill: #284c88;
      }
    </style>
  </defs>
  <path class="cls-1" d="m278.1,788.17c-.96.96-2.5,1-3.51.09-1.31-1.18-2.49-2.24-3.61-3.36-33.15-33.16-66.43-66.19-99.4-99.53-72-72.78-50.23-194.54,42.37-238.17,5.66-2.67,10.31-3.02,16.56-.69,31.35,11.71,62.85,11.26,94.26-.56,3.14-1.18,7.68-1.37,10.62.01,51.3,24.15,81.47,64.05,87.58,120.77,4.96,46.05-9.74,85.84-42.06,118.73-33.74,34.34-68.09,68.08-102.82,102.69Zm63.72-206c.53-35.74-28.27-65.95-63.39-66.48-36.36-.55-66.83,27.63-67.43,62.37-.67,38.5,27.3,68.23,64.86,68.98,35.53.7,65.42-28.69,65.96-64.86Z"/>
  <path class="cls-1" d="m443.59,195.67c-111.78-9.87-223.69-9.78-335.34,1.11-.89.09-1.81-.27-2.3-1.02-.08-.12-.12-.23-.12-.35-.03-34.61-3.98-69.57,9.05-103.04C136.2,37.54,187.47,1.05,246.56.27c28.25-.37,56.92-.98,84.71,3.16,61.01,9.08,110.36,63.99,114.82,125.46,1.53,21.06.36,42.31.26,64.26,0,1.49-1.28,2.66-2.76,2.53Z"/>
  <path class="cls-1" d="m474.25,306.6c-.05,0-.11,0-.16,0-3.79,0-6.87-.17-9.92.03-8.53.57-14.84-.06-20.32-9.47-4.3-7.39-14.22-12.4-22.63-16.33-23.29-10.89-48.49-15.32-73.79-18.44-53.98-6.64-107.93-6.17-161.61,3-22.08,3.77-44.2,8.35-63.55,20.27-6.84,4.22-11.65,11.72-17.47,17.63-1.27,1.29-2.89,3.13-4.38,3.16-23.98.4-48.01.6-70.9-8.07-6.42-2.43-12.81-5.62-18.33-9.66-14.98-10.97-14.87-25.09.06-36.06,14.35-10.55,31.16-14.18,48.44-16.38,28.82-3.68,56.93,1.33,85.13,6.24,57.32,9.98,115.1,12.09,173.15,9.62,37.63-1.6,74.74-6.9,111.79-13.36,29.12-5.07,58.5-6.63,87.19,2.48,9.38,2.98,18.75,7.52,26.64,13.35,12.56,9.3,12.15,22.63.04,32.6-14.72,12.11-32.65,15.8-50.91,18.16-6.34.82-12.78.88-18.46,1.24Z"/>
</svg>