<svg xmlns="http://www.w3.org/2000/svg" viewBox="0 0 844.78 844.79"><defs><style>.cls-1{fill:#fff;}</style></defs><g id="Calque_2" data-name="Calque 2"><g id="Calque_1-2" data-name="Calque 1"><path class="cls-1" d="M450.19,222.7V348.26a79.19,79.19,0,0,1,0,148.27V546.6a153.42,153.42,0,0,1-1.27,19.76c70-12.7,120.47-72.92,120.47-144.61V103.5Zm0,0V348.26a79.19,79.19,0,0,1,0,148.27V546.6a153.42,153.42,0,0,1-1.27,19.76c70-12.7,120.47-72.92,120.47-144.61V103.5ZM422.39,0C189.11,0,0,189.12,0,422.4S189.11,844.79,422.39,844.79,844.78,655.68,844.78,422.4,655.67,0,422.39,0ZM575.06,421.75A152.7,152.7,0,0,1,446,572.6l-.92.14A149.84,149.84,0,0,1,147.7,546.6a151.51,151.51,0,0,1,1.78-23.19L274.34,398.55a151.64,151.64,0,0,0-1.79,23.2A150,150,0,0,0,442.63,570.23l.14-.87a149,149,0,0,0,1.75-22.76V498.41a79.16,79.16,0,1,1,0-152V225.53H197.64L322.49,100.67H575.06ZM450.19,348.26a79.19,79.19,0,0,1,0,148.27V546.6a153.42,153.42,0,0,1-1.27,19.76c70-12.7,120.47-72.92,120.47-144.61V103.5L450.19,222.7Zm0-125.56V348.26a79.19,79.19,0,0,1,0,148.27V546.6a153.42,153.42,0,0,1-1.27,19.76c70-12.7,120.47-72.92,120.47-144.61V103.5Z"/></g></g></svg>