<?xml version="1.0" standalone="no"?>
<!DOCTYPE svg PUBLIC "-//W3C//DTD SVG 20010904//EN"
 "http://www.w3.org/TR/2001/REC-SVG-20010904/DTD/svg10.dtd">
<svg version="1.0" xmlns="http://www.w3.org/2000/svg"
 width="900.000000pt" height="900.000000pt" viewBox="0 0 900.000000 900.000000"
 preserveAspectRatio="xMidYMid meet">

<g transform="translate(0.000000,900.000000) scale(0.100000,-0.100000)"
fill="#000000" stroke="none">
<path d="M4370 8994 c-432 -21 -811 -85 -1200 -203 -410 -125 -844 -335 -1200
-580 -123 -84 -339 -249 -381 -290 -9 -9 -71 -65 -138 -126 -67 -60 -165 -157
-218 -215 -53 -58 -112 -123 -132 -145 -42 -46 -140 -169 -191 -238 -19 -27
-44 -60 -56 -75 -21 -28 -130 -189 -169 -252 -70 -113 -85 -137 -85 -144 0 -5
-9 -20 -19 -34 -26 -37 -163 -310 -201 -402 -65 -153 -143 -365 -165 -445 -7
-27 -18 -62 -23 -76 -38 -98 -117 -476 -146 -694 -79 -594 -22 -1314 145
-1840 10 -33 25 -82 33 -110 21 -74 86 -249 156 -415 39 -94 184 -384 210
-420 11 -16 20 -30 20 -33 0 -21 206 -331 317 -477 91 -120 130 -168 169 -211
23 -24 92 -99 154 -167 62 -67 120 -128 130 -135 9 -7 64 -56 121 -109 57 -54
135 -121 173 -150 38 -29 97 -74 130 -101 62 -48 328 -229 378 -257 15 -8 65
-36 110 -62 222 -124 554 -279 663 -307 17 -5 59 -20 95 -33 199 -77 566 -163
860 -203 159 -21 464 -45 590 -45 373 -1 949 85 1275 191 33 10 83 25 110 33
71 19 247 85 415 156 75 31 264 125 353 174 26 14 67 37 91 50 24 13 74 44
112 68 38 23 76 48 86 53 36 21 211 144 303 214 303 230 696 636 903 933 13
18 47 67 76 108 48 70 137 213 199 322 43 75 173 338 202 408 15 36 42 102 61
147 65 161 177 521 201 653 3 14 16 79 29 144 63 307 97 796 75 1090 -43 583
-152 1045 -366 1546 -41 97 -173 361 -208 417 -13 21 -26 45 -30 53 -14 34
-183 291 -262 400 -227 314 -606 695 -935 941 -79 59 -345 239 -354 239 -2 0
-40 22 -83 48 -43 26 -94 56 -113 66 -456 236 -803 359 -1279 455 -285 58
-741 97 -991 85z m1760 -2832 c0 -1172 -4 -1796 -10 -1852 -38 -300 -161 -592
-351 -825 -55 -68 -167 -181 -239 -242 -179 -152 -449 -280 -688 -329 -84 -17
-93 -21 -98 -44 -91 -422 -311 -756 -671 -1015 -61 -44 -188 -113 -278 -151
-429 -182 -940 -163 -1350 49 -59 31 -132 75 -211 128 -74 50 -199 166 -270
250 -71 85 -77 94 -139 186 -106 160 -199 406 -232 608 -17 110 -22 345 -9
440 l8 60 664 664 c365 366 666 663 667 660 2 -2 0 -38 -4 -79 -41 -389 70
-793 303 -1108 137 -185 259 -294 483 -433 181 -112 451 -194 685 -207 149 -9
304 -3 319 13 17 17 31 240 31 501 l0 251 -52 -15 c-35 -10 -97 -15 -183 -16
-156 0 -253 23 -386 90 -511 262 -620 945 -215 1349 164 163 365 247 596 247
102 1 172 -8 223 -28 16 -6 17 40 17 635 l0 641 -1310 0 c-876 0 -1310 3
-1310 10 0 6 296 307 658 669 l657 659 1348 1 1347 1 0 -1768z"/>
<path d="M5433 7258 l-633 -633 0 -666 0 -666 52 -24 c225 -104 387 -293 464
-540 24 -73 27 -102 28 -224 1 -127 -2 -149 -28 -234 -46 -153 -100 -244 -211
-359 -76 -80 -146 -131 -242 -177 l-62 -30 -1 -330 c0 -181 -3 -346 -6 -366
l-6 -36 48 7 c83 14 244 70 353 123 437 215 749 616 841 1082 39 197 41 279
38 2018 l-3 1687 -632 -632z"/>
</g>
</svg>
